<svg width="36" height="36" viewBox="0 0 36 36" fill="none" xmlns="http://www.w3.org/2000/svg">
<path d="M26.4878 7.39344C27.0735 6.80766 28.0233 6.80765 28.6091 7.39344C29.1948 7.97922 29.1948 8.92898 28.6091 9.51476L20.1237 18.0001L28.6091 26.4853C29.1948 27.0711 29.1948 28.0209 28.6091 28.6066C28.0233 29.1924 27.0735 29.1924 26.4878 28.6066L18.0024 20.1214L9.51722 28.6066C9.50805 28.6158 9.49881 28.6248 9.48948 28.6336C8.90183 29.1922 7.97252 29.1832 7.39589 28.6066C6.95655 28.1673 6.84671 27.5232 7.06638 26.9815C7.1396 26.8009 7.24944 26.6317 7.39589 26.4853L15.8811 18.0001L7.39589 9.51483C6.81009 8.92905 6.81009 7.9793 7.39589 7.39352C7.98167 6.80772 8.93142 6.80772 9.5172 7.39352L18.0024 15.8787L26.4878 7.39344Z" fill="currentColor"/>
</svg>
