<svg width="22" height="20" viewBox="0 0 22 20" fill="none" xmlns="http://www.w3.org/2000/svg">
<path fill-rule="evenodd" clip-rule="evenodd" d="M19.6396 4.29955C19.9425 4.59218 20.1577 4.95455 20.2633 5.35004C20.5454 6.81562 20.6824 8.3025 20.6724 9.79171C20.678 11.2587 20.5411 12.723 20.2633 14.1667C20.1577 14.5622 19.9425 14.9246 19.6396 15.2172C19.3367 15.5098 18.9567 15.7224 18.5381 15.8334C17.0085 16.2167 10.8902 16.2167 10.8902 16.2167C10.8902 16.2167 4.77182 16.2167 3.24224 15.8334C2.83211 15.7282 2.45786 15.5257 2.15565 15.2454C1.85343 14.9652 1.63347 14.6166 1.51701 14.2334C1.23489 12.7678 1.09795 11.2809 1.10793 9.79171C1.10014 8.31363 1.23707 6.838 1.51701 5.38337C1.62264 4.98788 1.83779 4.62552 2.14071 4.33288C2.44363 4.04024 2.8236 3.82769 3.24224 3.71671C4.77182 3.33337 10.8902 3.33337 10.8902 3.33337C10.8902 3.33337 17.0085 3.33337 18.5381 3.68337C18.9567 3.79436 19.3367 4.00691 19.6396 4.29955ZM14.0031 9.79174L8.88962 12.5167V7.06674L14.0031 9.79174Z" fill="white"/>
</svg>
